# Blender 3.5.1
# www.blender.org
mtllib asteroid.mtl
o Rock_Large_1_Cube.026
v -0.783859 0.076104 2.497001
v -0.704046 2.616991 2.262848
v -3.360141 -0.021456 -1.322391
v -1.649809 2.744370 1.020824
v 2.750317 0.289331 -2.057204
v 2.264204 2.470758 -1.429678
v -2.604335 0.180962 -2.303798
v 1.958051 -0.023638 0.663199
v 1.889088 2.785763 0.793775
v -1.264037 -0.114131 2.027037
v -1.132485 2.665279 1.738656
v 2.279526 0.246659 -2.635674
v 1.192051 2.799658 0.414650
v 1.384482 -0.098291 0.342773
v -0.690347 2.251190 2.619335
v -2.320149 2.420974 0.323760
v 2.397393 2.099267 -1.623205
v 2.570911 2.400136 0.478618
v -2.039083 2.327265 -1.837838
v 1.712569 2.227769 -2.152779
v -1.290656 2.293699 2.119644
v -1.900968 0.349066 -2.942383
v -0.344695 0.497585 -4.025246
v 0.224642 2.486982 -2.746501
v -1.283228 2.502067 -2.541646
v -1.243625 2.697293 -2.210912
v 0.736469 2.786535 -2.101831
v -0.047537 2.972996 -0.499937
v -1.474584 2.757099 -1.766631
v -1.479312 2.912311 -0.748110
v 1.115384 2.314892 2.635553
v 2.802154 2.386896 0.592735
v 3.519724 0.217759 -0.835369
v 3.821751 0.049651 1.786365
v 3.556211 1.308629 1.182970
v 3.290910 1.178713 -0.758182
v -3.065295 1.036038 -1.597232
v 2.496970 1.241208 -1.895732
v -2.406558 1.366512 -2.396456
v 1.671828 1.425770 -2.474895
v -1.327278 1.166674 2.290809
v -1.000590 1.374300 2.862761
v -0.109931 1.754304 -3.327281
v -1.810859 1.319861 -2.860015
v 1.115098 2.078381 3.160362
v -0.917026 2.020437 2.768482
v -1.341703 2.183512 -2.768074
v 3.324339 2.105856 1.333320
v -2.807534 2.175804 -1.089601
v 2.479708 1.911084 -1.759860
v -2.150109 2.126396 -2.254251
v 1.666440 2.070804 -2.291140
v -1.352346 2.051527 2.218117
v 0.047332 2.244286 -3.116941
v 3.206007 1.935586 -0.679500
v 2.048715 0.061530 3.210056
v 0.752143 0.069871 3.307235
v 0.557853 1.343037 3.209453
v 1.833500 1.324378 3.086339
v 0.826291 2.728886 1.677906
v 0.113397 2.769100 1.495557
v 1.720876 2.376355 1.968617
v 1.309287 2.396299 1.893094
v 2.108879 1.973863 2.886168
v -3.609441 -0.008337 -0.252930
v -2.455766 -0.012172 2.269824
v -3.848927 1.064853 0.032086
v -2.124012 1.237022 2.492795
v -2.953560 2.231404 -0.337733
v -1.808559 2.075236 2.278593
v -1.462240 2.706595 1.327113
v -1.443259 -0.175000 0.403448
v -1.802384 2.435187 1.400849
v -2.034017 2.213046 1.305484
v -3.232931 -0.032499 1.124435
v -3.255758 1.262886 1.484809
v -2.295568 2.253759 1.540943
v 1.191915 2.176133 2.974450
v -0.809580 2.192571 2.660079
v -1.319712 2.335881 -2.708565
v 3.203292 2.224092 1.111182
v -2.539505 2.253122 -1.038884
v 2.416057 2.007117 -1.753695
v -2.167120 2.187140 -2.114363
v 1.699014 2.147773 -2.216719
v -1.384851 2.219991 2.150109
v 0.127595 2.334460 -2.940240
v 2.100127 2.211895 2.354664
v -1.968361 2.274737 1.333501
v 2.965205 2.135965 -0.861359
v -1.619550 -0.190966 -1.764720
v -1.677380 -0.257010 -0.808064
v -0.981134 -0.315511 -0.180284
v -0.020351 -0.290816 0.522562
v 0.995922 -0.288847 -0.002794
v 2.060936 -0.127996 -2.207158
v -0.004440 0.052239 -3.623867
v -1.522913 -0.079293 -2.311258
v -0.618763 2.491720 2.500983
v 0.341087 2.663913 2.064785
v 1.759746 2.673632 -1.500160
v 1.897111 2.722751 -0.641448
v 2.261142 2.624017 -0.592991
v -2.129083 2.708613 0.334492
v -1.959461 2.832044 -0.073355
v -1.997322 -0.150989 -0.002305
v -1.214841 -0.304088 -0.348693
v -2.464770 2.304375 0.349634
v -3.605703 1.153596 0.945338
v -3.339525 -0.053003 0.564366
v -2.759332 2.255873 0.380294
v -2.492371 2.251039 0.426594
v -2.402107 2.385526 -0.995694
vn 0.7968 0.5949 -0.1060
vn 0.1690 -0.9311 0.3234
vn -0.0596 0.8627 -0.5021
vn 0.0385 0.9985 0.0379
vn 0.0679 0.9899 0.1244
vn 0.9331 -0.2579 0.2505
vn -0.0360 0.9944 0.0996
vn 0.1402 0.9784 -0.1516
vn 0.0457 0.8907 0.4522
vn -0.2995 0.9406 0.1601
vn -0.5481 0.7293 0.4094
vn -0.8247 0.5401 0.1679
vn -0.6864 0.7065 0.1723
vn 0.4563 0.6086 -0.6491
vn 0.4926 0.6392 -0.5906
vn 0.5439 0.6342 -0.5495
vn 0.2888 0.7178 0.6335
vn 0.5559 -0.5403 0.6317
vn 0.3448 0.3710 0.8623
vn 0.1118 -0.9926 0.0482
vn 0.1374 -0.9878 -0.0731
vn 0.0687 -0.9976 0.0053
vn -0.0374 0.9921 0.1200
vn -0.0274 0.9914 0.1280
vn 0.0104 0.9950 0.0995
vn 0.3570 0.9251 -0.1295
vn 0.3155 0.9366 -0.1525
vn 0.2791 0.9447 -0.1720
vn -0.2833 -0.8416 0.4599
vn -0.2825 -0.7535 0.5936
vn -0.1520 -0.9845 0.0873
vn -0.1609 -0.9848 0.0657
vn -0.1474 -0.9836 0.1042
vn 0.3757 0.7106 -0.5949
vn 0.3830 0.6385 -0.6675
vn -0.5369 0.7466 -0.3927
vn -0.6814 0.7075 -0.1876
vn -0.0196 0.9945 0.1032
vn -0.0100 0.9835 0.1807
vn 0.0318 0.9967 0.0740
vn -0.5350 0.5794 0.6149
vn -0.4969 0.7158 0.4906
vn -0.4599 0.7309 0.5043
vn 0.6454 0.7556 -0.1117
vn 0.4792 0.8724 -0.0968
vn 0.7271 0.6792 -0.0999
vn -0.4214 0.8789 -0.2235
vn -0.4932 0.8337 -0.2483
vn -0.5266 0.7891 -0.3161
vn 0.0536 0.1030 0.9932
vn 0.1510 0.1017 0.9833
vn 0.2788 0.1729 0.9446
vn 0.4964 0.7284 -0.4722
vn 0.4763 0.4984 -0.7244
vn 0.3711 0.7134 -0.5945
vn 0.1301 0.9911 -0.0300
vn 0.1611 0.9860 -0.0421
vn 0.1289 0.9896 -0.0632
vn -0.4292 0.3895 -0.8149
vn -0.4820 0.3065 -0.8208
vn -0.2965 0.4417 -0.8467
vn -0.0288 0.9897 -0.1401
vn -0.0197 0.9890 -0.1464
vn -0.0158 0.9885 -0.1507
vn -0.0287 0.9898 -0.1394
vn -0.5308 0.7570 -0.3810
vn -0.5114 0.7467 -0.4252
vn 0.0685 -0.9937 -0.0887
vn 0.6614 0.3614 0.6572
vn 0.6953 0.1149 0.7095
vn 0.6166 0.1802 0.7664
vn 0.2716 0.9110 0.3103
vn 0.1859 0.9324 0.3098
vn 0.2198 0.8682 0.4449
vn -0.5221 0.7507 -0.4047
vn -0.5036 0.6648 -0.5518
vn -0.1381 0.0541 0.9889
vn -0.2056 0.1788 0.9622
vn -0.2179 -0.0634 0.9739
vn 0.7753 0.3249 -0.5416
vn 0.7424 0.4346 -0.5099
vn 0.8034 0.2386 -0.5455
vn -0.7011 0.0885 -0.7075
vn -0.6520 0.0805 -0.7539
vn -0.7497 0.0675 -0.6583
vn -0.3845 0.3550 -0.8521
vn -0.1553 0.7259 -0.6700
vn -0.8545 0.0702 -0.5147
vn -0.9305 0.0138 -0.3660
vn -0.8984 -0.0861 -0.4306
vn 0.4588 0.3600 -0.8123
vn 0.5142 0.2999 -0.8035
vn 0.5893 0.3509 -0.7277
vn 0.6206 0.2828 -0.7314
vn 0.7293 0.2985 -0.6156
vn -0.9160 0.1597 -0.3681
vn -0.8122 -0.1564 0.5621
vn 0.9686 0.2110 -0.1315
vn 0.9711 0.2146 -0.1044
vn 0.9821 0.1578 -0.1030
vn -0.2917 0.5355 -0.7926
vn -0.0729 0.8434 -0.5323
vn -0.5026 0.6118 -0.6108
vn -0.5631 0.3317 -0.7569
vn -0.3280 -0.1748 0.9284
vn -0.8127 0.4102 -0.4138
vn -0.8511 0.4164 -0.3197
vn -0.7785 0.5540 -0.2948
vn 0.4448 0.4059 -0.7984
vn 0.4562 0.3069 -0.8353
vn 0.5747 0.2782 -0.7697
vn -0.7950 0.3755 -0.4765
vn -0.8273 -0.0548 0.5590
vn -0.7178 0.1918 0.6693
vn 0.8636 0.4879 -0.1267
vn 0.9714 0.1878 -0.1453
vn 0.2512 0.9422 0.2219
vn 0.1896 0.9584 0.2136
vn -0.1686 0.0563 0.9841
vn 0.0750 0.1099 0.9911
vn 0.8053 0.2764 -0.5244
vn 0.8176 0.2064 -0.5376
vn 0.8281 0.2380 -0.5075
vn -0.0091 0.9985 0.0533
vn 0.5507 0.6519 0.5214
vn 0.3329 0.7617 0.5559
vn 0.5897 0.6114 0.5276
vn 0.7324 0.2606 0.6290
vn 0.7465 -0.0701 0.6617
vn -0.9296 -0.2776 0.2424
vn -0.9172 -0.2856 0.2780
vn -0.9159 -0.2806 0.2871
vn -0.7259 0.6515 0.2206
vn -0.7509 0.6431 0.1502
vn -0.7154 0.6627 0.2213
vn -0.0661 -0.9969 0.0428
vn -0.0652 -0.9965 0.0516
vn -0.0567 -0.9972 0.0495
vn 0.2175 -0.0504 0.9748
vn 0.1951 -0.2038 0.9594
vn 0.1804 -0.1898 0.9651
vn 0.0348 0.9992 -0.0219
vn 0.0566 0.9966 -0.0598
vn 0.0231 0.9993 -0.0291
vn 0.1904 0.1139 0.9751
vn 0.2253 -0.0647 0.9721
vn -0.0719 -0.9973 0.0161
vn -0.0673 -0.9976 0.0132
vn -0.6277 0.4729 0.6183
vn -0.6724 0.5061 0.5402
vn -0.6060 0.5689 0.5560
vn -0.7430 -0.0555 0.6670
vn -0.7783 -0.1104 0.6181
vn -0.8879 -0.2164 0.4060
vn -0.6539 0.4461 0.6111
vn -0.6227 0.6615 0.4180
vn -0.7049 0.5341 0.4667
vn -0.0461 0.9938 0.1014
vn 0.0075 0.9951 0.0982
vn -0.8412 0.1003 0.5314
vn -0.7047 0.5422 0.4576
vn 0.3344 0.8905 0.3084
vn 0.2793 0.8730 0.3998
vn 0.8055 0.2201 -0.5501
vn -0.1057 0.7260 -0.6795
vn -0.0727 0.8010 -0.5942
vn 0.2312 0.8185 0.5259
vn -0.6673 0.7253 0.1693
vn -0.2965 0.9549 -0.0147
vn -0.6447 0.7149 0.2706
vn 0.4883 0.3845 -0.7834
vn 0.5531 0.4152 -0.7223
vn -0.7695 0.4497 -0.4534
vn -0.4338 0.7612 0.4821
vn -0.6977 0.4261 0.5759
vn 0.9089 0.4076 -0.0879
vn 0.0356 -0.9993 -0.0118
vn -0.0055 -1.0000 0.0022
vn 0.0178 -0.9975 -0.0679
vn 0.0065 -0.9979 -0.0645
vn 0.0118 -0.9997 0.0190
vn 0.0294 -0.9908 -0.1319
vn -0.0109 -0.9959 -0.0893
vn 0.0588 -0.9870 -0.1494
vn 0.0037 -0.9967 -0.0807
vn 0.3123 -0.7579 -0.5727
vn 0.3833 -0.4741 -0.7926
vn 0.3885 -0.4352 -0.8122
vn -0.1936 -0.9170 -0.3486
vn -0.2460 -0.8997 -0.3606
vn -0.1725 -0.9656 -0.1944
vn -0.2572 -0.8533 -0.4536
vn -0.3137 -0.7880 -0.5297
vn -0.1495 -0.9642 -0.2188
vn -0.1156 -0.9904 -0.0754
vn -0.1082 -0.9882 0.1080
vn -0.0882 -0.9921 0.0893
vn -0.0849 -0.9953 0.0467
vn -0.1489 0.6400 0.7538
vn -0.0692 0.8814 0.4673
vn -0.0512 0.9049 0.4226
vn -0.1003 0.7222 0.6844
vn -0.0360 0.9220 0.3856
vn 0.3843 0.9161 -0.1139
vn 0.0879 0.9952 -0.0432
vn 0.2666 0.9629 -0.0408
vn -0.0312 -0.9970 -0.0707
vn -0.0857 -0.9962 -0.0159
vn -0.0869 -0.9962 -0.0080
vn 0.1125 0.9934 -0.0223
vn 0.1312 0.9910 -0.0256
vn -0.6749 0.6485 0.3521
vn -0.8861 -0.2347 0.3996
vn -0.1157 -0.9827 0.1449
vn -0.4630 0.8863 -0.0091
vn -0.5071 0.8524 -0.1272
vn -0.5392 0.7919 -0.2866
vn 0.9094 0.3946 -0.1316
vn 0.5041 0.8630 0.0346
vn 0.1625 -0.9554 0.2465
vn -0.0186 0.9123 -0.4092
vn 0.0411 0.9984 0.0394
vn 0.2273 0.9701 0.0847
vn 0.3600 -0.9269 0.1063
vn 0.0268 0.9929 0.1159
vn 0.1321 0.9792 -0.1542
vn 0.5361 0.7238 -0.4344
vn -0.7687 0.3765 0.5172
vn 0.3864 0.7483 -0.5392
vn 0.3404 0.3316 0.8799
vn 0.1674 -0.9838 -0.0636
vn -0.0236 0.9936 0.1108
vn -0.1583 -0.9851 0.0668
vn -0.4409 0.6786 0.5874
vn -0.5816 0.6154 0.5320
vn -0.5475 0.8094 -0.2122
vn 0.1373 0.9894 -0.0479
vn 0.0869 0.9961 -0.0145
vn -0.5747 0.1220 -0.8092
vn -0.0373 0.9903 -0.1335
vn 0.7040 0.4991 -0.5053
vn -0.6035 0.1229 -0.7879
vn -0.7867 0.4811 -0.3869
vn 0.1904 0.9691 0.1570
vn 0.7782 0.1097 0.6184
vn -0.7514 0.6343 0.1816
vn -0.0759 -0.9961 0.0457
vn 0.0603 0.9963 -0.0620
vn 0.1353 0.0849 0.9872
vn -0.7109 0.4130 0.5693
vn -0.6639 0.0431 0.7466
vn -0.0389 0.9951 0.0907
vn -0.1183 0.9741 0.1926
vn -0.4252 0.8102 -0.4035
vn -0.0064 -1.0000 0.0004
vn -0.0103 -0.9937 -0.1115
vn 0.2994 -0.7887 -0.5369
vn -0.3225 -0.7577 -0.5674
vn -0.1681 0.5983 0.7834
vn -0.6870 0.6372 0.3492
vn -0.3547 0.9241 -0.1425
s 0
usemtl Atlas
f 6//1 103//1 18//1
f 14//2 94//2 95//2
f 26//3 24//3 25//3
f 18//4 62//4 32//4
f 74//5 70//5 53//5
f 14//6 96//6 12//6
f 31//7 63//7 15//7
f 90//8 17//8 18//8
f 99//9 100//9 2//9
f 105//10 104//10 4//10
s 1
f 71//11 104//12 16//13
f 20//14 6//15 17//16
f 60//17 100//18 15//19
f 14//20 5//21 8//22
f 11//23 100//24 60//25
f 6//26 102//27 103//28
f 14//20 1//29 10//30
f 106//31 92//32 107//33
f 27//34 20//14 24//35
f 16//13 105//36 113//37
f 28//38 61//39 13//40
f 99//41 11//42 21//43
f 90//44 32//45 81//46
f 82//47 19//48 84//49
f 45//50 59//51 64//52
f 20//14 83//53 85//54
f 24//35 85//54 87//55
f 28//56 102//57 101//58
f 23//59 44//60 43//61
f 28//62 29//63 30//64
f 28//62 26//65 29//63
f 19//48 26//66 25//67
f 33//68 8//22 5//21
f 34//69 59//70 56//71
f 88//72 31//73 78//74
f 84//49 25//75 80//76
f 58//77 46//78 42//79
f 50//80 90//81 55//82
f 39//83 22//84 7//85
f 43//61 47//86 54//87
f 37//88 65//89 67//90
f 23//91 40//92 12//93
f 12//93 38//94 5//95
f 37//88 7//85 3//96
f 1//29 41//97 10//30
f 33//98 35//99 34//100
f 54//87 80//101 87//102
f 51//103 44//60 39//104
f 1//105 58//77 42//79
f 37//106 69//107 49//108
f 54//109 40//92 43//110
f 40//92 50//111 38//94
f 49//108 39//112 37//106
f 42//113 53//114 41//97
f 55//115 35//99 36//116
f 81//117 62//118 88//72
f 59//51 57//119 56//120
f 5//121 36//122 33//123
f 13//40 60//25 9//124
f 9//125 63//126 18//127
f 35//128 64//129 59//70
f 110//130 67//131 65//132
f 111//133 67//134 109//135
f 72//136 66//137 75//138
f 41//139 66//140 10//141
f 112//142 69//143 111//144
f 41//139 70//145 68//146
f 106//147 75//138 110//148
f 68//149 77//150 76//151
f 66//152 76//153 75//154
f 86//155 73//156 89//157
f 11//42 73//156 21//43
f 30//158 4//159 11//23
f 53//160 89//157 74//161
f 48//162 88//72 64//163
f 50//80 36//122 38//164
f 87//102 25//165 24//166
f 51//103 80//101 47//86
f 64//163 78//74 45//167
f 108//168 49//169 112//170
f 87//55 52//171 54//109
f 52//171 83//172 50//111
f 49//108 84//49 51//173
f 79//174 53//114 46//175
f 55//115 81//46 48//176
f 34//177 57//178 1//29
f 93//179 95//180 94//181
f 98//182 96//183 95//180
f 91//184 93//179 107//185
f 12//186 97//187 23//188
f 7//189 98//190 91//191
f 22//192 97//193 98//190
f 3//194 91//191 92//195
f 72//196 94//197 10//198
f 79//199 45//200 78//201
f 15//202 78//201 31//203
f 79//174 21//43 86//155
f 101//204 102//27 6//26
f 102//57 9//205 103//206
f 92//207 91//184 107//185
f 89//157 112//170 74//161
f 106//147 65//208 3//209
f 112//142 77//210 74//211
f 76//212 111//133 109//135
f 75//154 109//213 110//130
f 89//157 16//13 108//168
f 72//196 107//33 93//214
f 108//168 113//37 82//215
f 105//216 29//217 19//48
s 0
f 18//218 17//218 6//218
f 103//219 9//219 18//219
f 14//220 10//220 94//220
f 26//221 27//221 24//221
f 18//222 63//222 62//222
f 74//223 77//223 70//223
f 14//224 95//224 96//224
f 31//225 62//225 63//225
f 18//226 32//226 90//226
f 90//227 83//227 17//227
s 1
f 16//13 73//156 71//11
f 71//11 4//228 104//12
f 20//14 101//229 6//15
f 15//19 63//126 60//17
f 100//18 99//230 15//19
f 14//20 12//231 5//21
f 60//25 61//39 11//23
f 11//23 2//232 100//24
f 14//20 8//22 1//29
f 106//31 3//233 92//32
f 27//34 101//229 20//14
f 16//13 104//12 105//36
f 28//38 30//158 61//39
f 21//43 15//234 99//41
f 99//41 2//235 11//42
f 82//47 113//236 19//48
f 45//50 58//77 59//51
f 20//14 17//16 83//53
f 24//35 20//14 85//54
f 101//58 27//237 28//56
f 28//56 13//238 102//57
f 23//59 22//239 44//60
f 28//62 27//240 26//65
f 19//48 29//217 26//66
f 33//68 34//177 8//22
f 34//69 35//128 59//70
f 88//72 62//118 31//73
f 84//49 19//48 25//75
f 58//77 45//50 46//78
f 50//80 83//241 90//81
f 39//83 44//242 22//84
f 43//61 44//60 47//86
f 37//88 3//96 65//89
f 23//91 43//110 40//92
f 12//93 40//92 38//94
f 37//88 39//83 7//85
f 1//29 42//113 41//97
f 33//98 36//116 35//99
f 54//87 47//86 80//101
f 51//103 47//86 44//60
f 1//105 57//119 58//77
f 37//106 67//243 69//107
f 54//109 52//171 40//92
f 40//92 52//171 50//111
f 49//108 51//173 39//112
f 42//113 46//175 53//114
f 55//115 48//176 35//99
f 81//117 32//244 62//118
f 59//51 58//77 57//119
f 5//121 38//164 36//122
f 13//40 61//39 60//25
f 9//125 60//17 63//126
f 35//128 48//245 64//129
f 110//130 109//213 67//131
f 111//133 69//246 67//134
f 72//136 10//247 66//137
f 41//139 68//146 66//140
f 112//142 49//248 69//143
f 41//139 53//249 70//145
f 106//147 72//136 75//138
f 68//149 70//250 77//150
f 66//152 68//251 76//153
f 86//155 21//43 73//156
f 11//42 71//11 73//156
f 11//23 61//39 30//158
f 30//158 105//252 4//159
f 4//159 71//253 11//23
f 53//160 86//155 89//157
f 48//162 81//117 88//72
f 50//80 55//82 36//122
f 87//102 80//101 25//165
f 51//103 84//254 80//101
f 64//163 88//72 78//74
f 108//168 82//215 49//169
f 87//55 85//54 52//171
f 52//171 85//54 83//172
f 49//108 82//47 84//49
f 79//174 86//155 53//114
f 55//115 90//44 81//46
f 1//29 8//22 34//177
f 34//177 56//255 57//178
f 95//180 91//184 98//182
f 98//182 97//256 96//183
f 91//184 95//180 93//179
f 12//186 96//257 97//187
f 7//189 22//192 98//190
f 22//192 23//258 97//193
f 3//194 7//189 91//191
f 72//196 93//214 94//197
f 79//199 46//259 45//200
f 15//202 79//199 78//201
f 79//174 15//234 21//43
f 102//57 13//238 9//205
f 89//157 108//168 112//170
f 106//147 110//148 65//208
f 112//142 111//144 77//210
f 76//212 77//260 111//133
f 75//154 76//153 109//213
f 89//157 73//156 16//13
f 72//196 106//31 107//33
f 108//168 16//13 113//37
f 19//48 113//236 105//216
f 105//216 30//261 29//217
